<mxfile host="app.diagrams.net" agent="Mozilla/5.0 (Windows NT 10.0; Win64; x64) AppleWebKit/537.36 (KHTML, like Gecko) Chrome/128.0.0.0 Safari/537.36 Edg/128.0.0.0" version="24.7.13">
  <diagram name="Page-1" id="NG33TDfxa4ZXpd9zYDVI">
    <mxGraphModel dx="2066" dy="1109" grid="1" gridSize="10" guides="1" tooltips="1" connect="1" arrows="1" fold="1" page="1" pageScale="1" pageWidth="850" pageHeight="1100" math="0" shadow="0">
      <root>
        <mxCell id="0" />
        <mxCell id="1" parent="0" />
        <mxCell id="SJRPVNXv2jakaGyeaKaE-1" value="WRITE Voer het 1ste getal in:" style="shape=parallelogram;perimeter=parallelogramPerimeter;whiteSpace=wrap;html=1;fixedSize=1;" parent="1" vertex="1">
          <mxGeometry x="20" y="130" width="210" height="60" as="geometry" />
        </mxCell>
        <mxCell id="SJRPVNXv2jakaGyeaKaE-2" value="" style="endArrow=classic;html=1;rounded=0;" parent="1" edge="1">
          <mxGeometry width="50" height="50" relative="1" as="geometry">
            <mxPoint x="130" y="190" as="sourcePoint" />
            <mxPoint x="130" y="270" as="targetPoint" />
          </mxGeometry>
        </mxCell>
        <mxCell id="SJRPVNXv2jakaGyeaKaE-3" value="READ a" style="shape=parallelogram;perimeter=parallelogramPerimeter;whiteSpace=wrap;html=1;fixedSize=1;" parent="1" vertex="1">
          <mxGeometry x="40" y="270" width="170" height="60" as="geometry" />
        </mxCell>
        <mxCell id="SJRPVNXv2jakaGyeaKaE-9" value="" style="endArrow=classic;html=1;rounded=0;" parent="1" edge="1">
          <mxGeometry width="50" height="50" relative="1" as="geometry">
            <mxPoint x="130" y="330" as="sourcePoint" />
            <mxPoint x="130" y="410" as="targetPoint" />
          </mxGeometry>
        </mxCell>
        <mxCell id="SJRPVNXv2jakaGyeaKaE-10" value="WRITE Voer het 2de getal in:" style="shape=parallelogram;perimeter=parallelogramPerimeter;whiteSpace=wrap;html=1;fixedSize=1;" parent="1" vertex="1">
          <mxGeometry x="20" y="410" width="210" height="60" as="geometry" />
        </mxCell>
        <mxCell id="SJRPVNXv2jakaGyeaKaE-11" value="" style="endArrow=classic;html=1;rounded=0;" parent="1" edge="1">
          <mxGeometry width="50" height="50" relative="1" as="geometry">
            <mxPoint x="130" y="470" as="sourcePoint" />
            <mxPoint x="130" y="550" as="targetPoint" />
          </mxGeometry>
        </mxCell>
        <mxCell id="SJRPVNXv2jakaGyeaKaE-12" value="READ b" style="shape=parallelogram;perimeter=parallelogramPerimeter;whiteSpace=wrap;html=1;fixedSize=1;" parent="1" vertex="1">
          <mxGeometry x="40" y="550" width="170" height="60" as="geometry" />
        </mxCell>
        <mxCell id="SJRPVNXv2jakaGyeaKaE-15" value="" style="endArrow=classic;html=1;rounded=0;" parent="1" edge="1">
          <mxGeometry width="50" height="50" relative="1" as="geometry">
            <mxPoint x="130" y="610" as="sourcePoint" />
            <mxPoint x="130" y="690" as="targetPoint" />
          </mxGeometry>
        </mxCell>
        <mxCell id="SJRPVNXv2jakaGyeaKaE-16" value="WRITE Voer het 3de getal in:" style="shape=parallelogram;perimeter=parallelogramPerimeter;whiteSpace=wrap;html=1;fixedSize=1;" parent="1" vertex="1">
          <mxGeometry x="30" y="690" width="190" height="60" as="geometry" />
        </mxCell>
        <mxCell id="SJRPVNXv2jakaGyeaKaE-17" value="" style="endArrow=classic;html=1;rounded=0;" parent="1" edge="1">
          <mxGeometry width="50" height="50" relative="1" as="geometry">
            <mxPoint x="130" y="750" as="sourcePoint" />
            <mxPoint x="130" y="830" as="targetPoint" />
          </mxGeometry>
        </mxCell>
        <mxCell id="nfRoc10fNmV9VxhcEEmm-5" value="" style="edgeStyle=orthogonalEdgeStyle;rounded=0;orthogonalLoop=1;jettySize=auto;html=1;" edge="1" parent="1" source="SJRPVNXv2jakaGyeaKaE-18" target="nfRoc10fNmV9VxhcEEmm-4">
          <mxGeometry relative="1" as="geometry" />
        </mxCell>
        <mxCell id="SJRPVNXv2jakaGyeaKaE-18" value="READ c" style="shape=parallelogram;perimeter=parallelogramPerimeter;whiteSpace=wrap;html=1;fixedSize=1;" parent="1" vertex="1">
          <mxGeometry x="40" y="830" width="170" height="60" as="geometry" />
        </mxCell>
        <mxCell id="nfRoc10fNmV9VxhcEEmm-10" style="edgeStyle=orthogonalEdgeStyle;rounded=0;orthogonalLoop=1;jettySize=auto;html=1;entryX=0.5;entryY=0;entryDx=0;entryDy=0;" edge="1" parent="1" source="SJRPVNXv2jakaGyeaKaE-26" target="nfRoc10fNmV9VxhcEEmm-9">
          <mxGeometry relative="1" as="geometry" />
        </mxCell>
        <mxCell id="SJRPVNXv2jakaGyeaKaE-26" value="WRITE uitkomst" style="shape=parallelogram;perimeter=parallelogramPerimeter;whiteSpace=wrap;html=1;fixedSize=1;" parent="1" vertex="1">
          <mxGeometry x="40" y="1110" width="170" height="60" as="geometry" />
        </mxCell>
        <mxCell id="nfRoc10fNmV9VxhcEEmm-6" style="edgeStyle=orthogonalEdgeStyle;rounded=0;orthogonalLoop=1;jettySize=auto;html=1;entryX=0.5;entryY=0;entryDx=0;entryDy=0;" edge="1" parent="1" source="nfRoc10fNmV9VxhcEEmm-4" target="SJRPVNXv2jakaGyeaKaE-26">
          <mxGeometry relative="1" as="geometry" />
        </mxCell>
        <mxCell id="nfRoc10fNmV9VxhcEEmm-4" value="INT uitkomst = a + b + c" style="whiteSpace=wrap;html=1;" vertex="1" parent="1">
          <mxGeometry x="50" y="970" width="150" height="60" as="geometry" />
        </mxCell>
        <mxCell id="nfRoc10fNmV9VxhcEEmm-8" style="edgeStyle=orthogonalEdgeStyle;rounded=0;orthogonalLoop=1;jettySize=auto;html=1;entryX=0.5;entryY=0;entryDx=0;entryDy=0;" edge="1" parent="1" source="nfRoc10fNmV9VxhcEEmm-7" target="SJRPVNXv2jakaGyeaKaE-1">
          <mxGeometry relative="1" as="geometry" />
        </mxCell>
        <mxCell id="nfRoc10fNmV9VxhcEEmm-7" value="START" style="ellipse;whiteSpace=wrap;html=1;" vertex="1" parent="1">
          <mxGeometry x="60" y="30" width="130" height="40" as="geometry" />
        </mxCell>
        <mxCell id="nfRoc10fNmV9VxhcEEmm-9" value="END" style="ellipse;whiteSpace=wrap;html=1;" vertex="1" parent="1">
          <mxGeometry x="60" y="1250" width="130" height="40" as="geometry" />
        </mxCell>
      </root>
    </mxGraphModel>
  </diagram>
</mxfile>
